<svg width="487" height="69" viewBox="0 0 487 69" fill="none" xmlns="http://www.w3.org/2000/svg">
<path d="M233.12 67.3872V0.712079H249.235V54.2996H276.973V67.3872H233.12ZM294.828 68.2337C291.638 68.2337 288.805 67.7019 286.331 66.6384C283.879 65.5532 281.936 63.9254 280.504 61.755C279.093 59.5629 278.387 56.8173 278.387 53.5183C278.387 50.7401 278.876 48.3961 279.852 46.4861C280.829 44.5762 282.175 43.0243 283.889 41.8306C285.604 40.6368 287.579 39.7361 289.815 39.1284C292.05 38.499 294.438 38.0758 296.977 37.8587C299.82 37.5983 302.11 37.327 303.846 37.0448C305.583 36.741 306.842 36.3177 307.623 35.7751C308.426 35.2108 308.827 34.4186 308.827 33.3985V33.2357C308.827 31.5645 308.252 30.2731 307.102 29.3615C305.952 28.45 304.4 27.9942 302.446 27.9942C300.341 27.9942 298.648 28.45 297.368 29.3615C296.087 30.2731 295.273 31.532 294.926 33.1381L280.243 32.6172C280.677 29.5786 281.795 26.8656 283.596 24.4781C285.42 22.069 287.916 20.1807 291.084 18.8133C294.275 17.4243 298.106 16.7297 302.577 16.7297C305.767 16.7297 308.708 17.1096 311.399 17.8692C314.091 18.6071 316.435 19.6924 318.432 21.1248C320.428 22.5356 321.969 24.2719 323.055 26.3338C324.161 28.3957 324.715 30.7506 324.715 33.3985V67.3872H309.739V60.4202H309.348C308.458 62.1131 307.319 63.5456 305.93 64.7176C304.563 65.8896 302.946 66.7686 301.079 67.3547C299.234 67.9407 297.151 68.2337 294.828 68.2337ZM299.744 57.8157C301.459 57.8157 303 57.4684 304.367 56.7739C305.756 56.0793 306.863 55.1244 307.688 53.9089C308.513 52.6718 308.925 51.2393 308.925 49.6115V44.8583C308.469 45.0971 307.916 45.3141 307.265 45.5094C306.635 45.7048 305.941 45.8893 305.181 46.0629C304.422 46.2365 303.64 46.3884 302.837 46.5187C302.034 46.6489 301.264 46.7683 300.526 46.8768C299.028 47.1155 297.747 47.4845 296.684 47.9837C295.642 48.4829 294.839 49.134 294.275 49.9371C293.732 50.7184 293.461 51.6517 293.461 52.7369C293.461 54.3864 294.047 55.6453 295.219 56.5134C296.413 57.3816 297.921 57.8157 299.744 57.8157ZM358.092 17.3809V29.1011H326.545V17.3809H358.092ZM333.153 5.40017H349.073V51.6626C349.073 52.6392 349.225 53.4314 349.529 54.0392C349.855 54.6252 350.321 55.0484 350.929 55.3089C351.537 55.5476 352.264 55.667 353.11 55.667C353.718 55.667 354.358 55.6127 355.031 55.5042C355.726 55.374 356.247 55.2654 356.594 55.1786L359.003 66.671C358.243 66.888 357.169 67.1593 355.78 67.4849C354.413 67.8104 352.774 68.0166 350.864 68.1034C347.131 68.2771 343.93 67.843 341.26 66.8012C338.612 65.7377 336.583 64.0882 335.172 61.8527C333.783 59.6171 333.11 56.8064 333.153 53.4206V5.40017ZM375.727 68.2337C372.537 68.2337 369.704 67.7019 367.23 66.6384C364.777 65.5532 362.835 63.9254 361.402 61.755C359.992 59.5629 359.286 56.8173 359.286 53.5183C359.286 50.7401 359.775 48.3961 360.751 46.4861C361.728 44.5762 363.074 43.0243 364.788 41.8306C366.503 40.6368 368.478 39.7361 370.714 39.1284C372.949 38.499 375.337 38.0758 377.876 37.8587C380.719 37.5983 383.009 37.327 384.745 37.0448C386.482 36.741 387.74 36.3177 388.522 35.7751C389.325 35.2108 389.726 34.4186 389.726 33.3985V33.2357C389.726 31.5645 389.151 30.2731 388.001 29.3615C386.851 28.45 385.299 27.9942 383.345 27.9942C381.24 27.9942 379.547 28.45 378.267 29.3615C376.986 30.2731 376.172 31.532 375.825 33.1381L361.142 32.6172C361.576 29.5786 362.694 26.8656 364.495 24.4781C366.318 22.069 368.814 20.1807 371.983 18.8133C375.174 17.4243 379.005 16.7297 383.476 16.7297C386.666 16.7297 389.607 17.1096 392.298 17.8692C394.99 18.6071 397.334 19.6924 399.33 21.1248C401.327 22.5356 402.868 24.2719 403.953 26.3338C405.06 28.3957 405.614 30.7506 405.614 33.3985V67.3872H390.638V60.4202H390.247C389.357 62.1131 388.218 63.5456 386.829 64.7176C385.462 65.8896 383.845 66.7686 381.978 67.3547C380.133 67.9407 378.05 68.2337 375.727 68.2337ZM380.643 57.8157C382.358 57.8157 383.899 57.4684 385.266 56.7739C386.655 56.0793 387.762 55.1244 388.587 53.9089C389.412 52.6718 389.824 51.2393 389.824 49.6115V44.8583C389.368 45.0971 388.815 45.3141 388.164 45.5094C387.534 45.7048 386.84 45.8893 386.08 46.0629C385.32 46.2365 384.539 46.3884 383.736 46.5187C382.933 46.6489 382.162 46.7683 381.425 46.8768C379.927 47.1155 378.646 47.4845 377.583 47.9837C376.541 48.4829 375.738 49.134 375.174 49.9371C374.631 50.7184 374.36 51.6517 374.36 52.7369C374.36 54.3864 374.946 55.6453 376.118 56.5134C377.312 57.3816 378.82 57.8157 380.643 57.8157ZM410.764 67.3872V17.3809H425.903V26.5617H426.456C427.498 23.5231 429.256 21.1248 431.73 19.3668C434.205 17.6088 437.156 16.7297 440.586 16.7297C444.058 16.7297 447.032 17.6196 449.506 19.3993C451.98 21.1791 453.554 23.5665 454.227 26.5617H454.748C455.681 23.5882 457.504 21.2116 460.217 19.4319C462.93 17.6305 466.131 16.7297 469.821 16.7297C474.553 16.7297 478.394 18.249 481.346 21.2876C484.298 24.3045 485.774 28.45 485.774 33.7241V67.3872H469.854V37.3704C469.854 34.8744 469.213 32.9753 467.933 31.673C466.652 30.3491 464.992 29.6871 462.952 29.6871C460.76 29.6871 459.034 30.4033 457.775 31.8358C456.538 33.2466 455.92 35.1457 455.92 37.5332V67.3872H440.618V37.2076C440.618 34.8853 439.989 33.0513 438.73 31.7056C437.471 30.3599 435.811 29.6871 433.749 29.6871C432.36 29.6871 431.134 30.0235 430.07 30.6964C429.007 31.3475 428.171 32.2808 427.563 33.4962C426.977 34.7116 426.684 36.1441 426.684 37.7936V67.3872H410.764Z" fill="#A6A6A6"/>
<path d="M41.2356 21.1444C41.0177 18.7482 40.0484 16.8858 38.3275 15.557C36.6284 14.2064 34.1996 13.5312 31.041 13.5312C28.9499 13.5312 27.2072 13.8034 25.8131 14.348C24.4189 14.8926 23.3734 15.6441 22.6763 16.6026C21.9792 17.5393 21.6198 18.6175 21.598 19.8374C21.5545 20.8394 21.7505 21.7216 22.1862 22.484C22.6436 23.2465 23.2971 23.9217 24.1467 24.5099C25.018 25.0762 26.0636 25.5773 27.2834 26.0129C28.5033 26.4486 29.8756 26.8298 31.4005 27.1565L37.1512 28.4635C40.4623 29.1824 43.3812 30.1408 45.9081 31.3389C48.4567 32.537 50.5914 33.9638 52.3123 35.6193C54.055 37.2748 55.3729 39.1808 56.266 41.3374C57.1591 43.4939 57.6165 45.9119 57.6383 48.5912C57.6165 52.8171 56.5491 56.444 54.4362 59.4719C52.3232 62.4997 49.2845 64.8197 45.3199 66.4316C41.3772 68.0436 36.6175 68.8495 31.041 68.8495C25.4428 68.8495 20.5633 68.0109 16.4027 66.3336C12.2421 64.6563 9.00735 62.1076 6.69833 58.6877C4.38931 55.2677 3.20213 50.9438 3.13678 45.7158H18.6246C18.7553 47.8723 19.3326 49.6695 20.3564 51.1071C21.3802 52.5448 22.7852 53.634 24.5714 54.3746C26.3794 55.1152 28.4706 55.4856 30.845 55.4856C33.0233 55.4856 34.8749 55.1915 36.3997 54.6033C37.9463 54.0152 39.1335 53.1983 39.9612 52.1527C40.789 51.1071 41.2138 49.9091 41.2356 48.5585C41.2138 47.2951 40.8217 46.2168 40.0593 45.3237C39.2969 44.4088 38.1206 43.6246 36.5304 42.9711C34.962 42.2958 32.958 41.675 30.5182 41.1087L23.5258 39.4749C17.7315 38.1461 13.1679 36.0005 9.83511 33.038C6.50228 30.0537 4.84676 26.0238 4.86854 20.9483C4.84676 16.8095 5.9577 13.1826 8.20137 10.0676C10.445 6.95263 13.5491 4.52381 17.5137 2.78115C21.4782 1.0385 25.9982 0.167168 31.0737 0.167168C36.2581 0.167168 40.7563 1.04939 44.5684 2.81382C48.4022 4.55648 51.3756 7.00709 53.4886 10.1657C55.6016 13.3242 56.6798 16.9838 56.7234 21.1444H41.2356ZM61.2064 68V1.08206H107.866V14.2173H77.3804V27.9407H105.481V41.1087H77.3804V54.8647H107.866V68H61.2064ZM113.395 68V1.08206H160.054V14.2173H129.569V27.9407H157.669V41.1087H129.569V54.8647H160.054V68H113.395ZM190.317 68H165.583V1.08206H190.285C197.103 1.08206 202.974 2.42173 207.897 5.10106C212.841 7.75861 216.653 11.5924 219.333 16.6026C222.012 21.5909 223.352 27.5595 223.352 34.5084C223.352 41.479 222.012 47.4693 219.333 52.4795C216.675 57.4896 212.874 61.3343 207.929 64.0137C202.984 66.6712 197.114 68 190.317 68ZM181.757 54.2112H189.697C193.443 54.2112 196.613 53.5795 199.205 52.3161C201.819 51.0309 203.79 48.9506 205.119 46.0752C206.47 43.1781 207.145 39.3224 207.145 34.5084C207.145 29.6943 206.47 25.8604 205.119 23.0068C203.769 20.1315 201.775 18.0621 199.14 16.7986C196.526 15.5134 193.302 14.8708 189.468 14.8708H181.757V54.2112Z" fill="white"/>
</svg>
