<svg width="227" height="235" viewBox="0 0 227 235" fill="none" xmlns="http://www.w3.org/2000/svg">
<path d="M127.003 7.58199C118.647 2.75775 108.353 2.75775 99.9968 7.58199L25.0598 50.8469C16.704 55.6711 11.5566 64.5867 11.5566 74.2351V160.765C11.5566 170.413 16.704 179.329 25.0598 184.153L99.9968 227.418C108.353 232.242 118.647 232.242 127.003 227.418L201.94 184.153C210.296 179.329 215.443 170.413 215.443 160.765V74.2351C215.443 64.5867 210.296 55.6711 201.94 50.8469L127.003 7.58199Z" fill="#232323" stroke="#F651F6" stroke-width="7.29904"/>
<path d="M41.7075 86.0899L35.8423 83.5023C33.1306 82.306 30.084 84.2918 30.084 87.2557V158.136C30.084 161.33 33.5718 163.298 36.306 161.649L47.9295 154.634C49.1601 153.892 49.9123 152.559 49.9123 151.122V95.9073C49.9123 92.9167 53.0093 90.9311 55.727 92.1793L101.958 113.413C104.892 114.761 105.191 118.813 102.486 120.577L67.8792 143.147C65.1504 144.927 61.5358 142.969 61.5358 139.711V120.619M108.714 27.6306V98.1677C108.714 101.154 105.624 103.14 102.907 101.899L40.9851 73.6246C37.9712 72.2484 37.7477 68.0518 40.5982 66.3632L90.5548 36.7693C93.2895 35.1493 96.7481 37.1204 96.7481 40.2989V95.9276M189.052 65.236L126.477 101.038C123.742 102.603 120.337 100.628 120.337 97.4772V89.5086M197.257 89.5086V81.7839C197.257 78.655 193.895 76.6779 191.161 78.1986L130.251 112.072M197.257 89.5086V156.486C197.257 159.872 193.387 161.8 190.684 159.761L143.934 124.493C141.539 122.687 141.829 119.005 144.477 117.596L197.257 89.5086ZM120.337 89.5086V31.6428C120.337 28.4145 123.893 26.4511 126.625 28.1712L169.824 55.3701C172.47 57.0362 172.354 60.9316 169.613 62.4372L120.337 89.5086ZM111.79 127.114L45.5367 169.19C42.8973 170.866 43.0281 174.76 45.774 176.256L102.649 207.227C105.383 208.716 108.714 206.737 108.714 203.624V186.941M120.337 151.728V132.01C120.337 128.609 124.237 126.685 126.935 128.754L151.105 147.284M151.105 147.284L180.042 169.206C182.376 170.974 182.159 174.549 179.628 176.022L126.503 206.941C123.768 208.533 120.337 206.56 120.337 203.395V169.349C120.337 167.955 121.045 166.656 122.217 165.901L151.105 147.284Z" stroke="#F651F6" stroke-width="6.83735" stroke-linecap="round" stroke-linejoin="round"/>
</svg>
