<svg width="157" height="29" viewBox="0 0 157 29" fill="none" xmlns="http://www.w3.org/2000/svg">
<path d="M50.666 15.8233V14.8579C50.666 12.0736 51.6034 10.3526 53.898 10.3526C55.8289 10.3526 56.7383 11.5559 56.7383 13.4308H60.4461V12.7732C60.4461 9.54114 58.3334 6.93872 53.8001 6.93872C48.8751 6.93872 46.7344 10.2547 46.7344 14.8439V15.8093C46.7344 20.3706 48.8751 23.7146 53.8001 23.7146C58.3334 23.7146 60.4461 21.1821 60.4461 18.1319V17.5023H56.7383C56.7383 19.0694 55.8988 20.2866 53.898 20.2866C51.5894 20.3006 50.666 18.5797 50.666 15.8233ZM69.8484 23.7425C74.8573 23.7425 77.096 20.3846 77.096 15.8373V14.8719C77.096 10.2827 74.8573 6.9667 69.8484 6.9667C64.8394 6.9667 62.6008 10.2827 62.6008 14.8719V15.8373C62.6008 20.3846 64.8394 23.7425 69.8484 23.7425ZM69.8484 20.3006C67.5538 20.3006 66.5324 18.5797 66.5324 15.8373V14.8719C66.5324 12.0876 67.5538 10.3666 69.8484 10.3666C72.143 10.3666 73.1644 12.0876 73.1644 14.8719V15.8373C73.1644 18.5797 72.143 20.3006 69.8484 20.3006ZM93.634 23.3508V12.3954C93.634 9.49917 92.2208 6.95271 88.709 6.95271C86.1765 6.95271 84.5115 8.01607 83.5181 9.45719L83.1543 7.34447H79.6844L79.9503 11.8777V23.3508H83.8819V12.2135C84.3296 11.458 85.365 10.3666 87.1979 10.3666C89.0308 10.3666 89.7303 11.486 89.7303 13.025V23.3508H93.634ZM110.648 23.3508V12.3954C110.648 9.49917 109.235 6.95271 105.723 6.95271C103.19 6.95271 101.525 8.01607 100.532 9.45719L100.168 7.34447H96.6981L96.964 11.8777V23.3508H100.896V12.2135C101.343 11.458 102.379 10.3666 104.212 10.3666C106.044 10.3666 106.744 11.486 106.744 13.025V23.3508H110.648ZM127.815 16.7888V14.9419C127.815 10.3806 125.577 6.93872 120.652 6.93872C115.727 6.93872 113.32 10.3806 113.32 14.9419V15.7254C113.32 20.2866 115.643 23.7285 120.806 23.7285C125.395 23.7285 127.815 21.1961 127.815 18.3278V18.2019H124.108C124.108 19.4052 122.988 20.6784 120.847 20.6784C118.707 20.6784 117.406 19.4052 117.252 16.7888H127.815ZM120.568 10.0029C122.708 10.0029 123.744 11.36 123.856 13.8925H117.238C117.406 11.36 118.455 10.0029 120.568 10.0029ZM129.508 7.34447L133.86 15.1657L129.508 23.3508H133.972L136.994 17.1945L140.044 23.3508H144.507L140.156 15.1657L144.507 7.34447H139.946L137.022 13.109L134.069 7.34447H129.508ZM152.161 7.34447V2.81122H148.229V7.34447H141.583V10.7864H148.229V18.1179C148.229 22.2594 150.524 23.7285 153.812 23.7285C155.225 23.7285 156.05 23.4627 156.288 23.3368V20.0768C156.106 20.1607 155.323 20.2866 154.749 20.2866C153.112 20.2866 152.147 19.8389 152.147 17.6842V10.7724H156.582V7.34447H152.161Z" fill="white"/>
<path d="M11.8114 0.851868C11.8114 0.851868 10.3562 2.30699 8.63529 4.02794L1.73747 10.8698C-1.07483 13.7381 0.0304993 16.6623 1.98931 18.6211L7.64189 24.2457C8.14559 24.7494 10.1044 26.8061 11.6714 25.1971C12.5809 24.2877 12.371 22.8885 11.8673 22.3289L5.37526 15.8928C4.21397 14.7315 4.77363 13.6821 5.93492 12.5768L11.4616 7.03612L14.9315 10.506C16.1347 11.7093 17.6458 12.171 18.9051 10.9118C20.1643 9.65254 19.4088 8.44927 18.2055 7.232L14.3858 3.41232L11.8114 0.851868Z" fill="white"/>
<path d="M12.12 1.10371C11.2105 0.195664 9.90934 -0.30943 8.6501 0.949807C7.39086 2.20904 8.04847 3.62219 8.84598 4.41971" fill="white"/>
<path d="M23.2826 27.7143L26.4587 24.5383L33.3565 17.6404C36.2247 14.7722 35.1194 11.8479 33.1046 9.88914L27.466 4.30652C26.9623 3.80282 25.0035 1.74607 23.4365 3.35509C22.527 4.26454 22.7369 5.66369 23.2406 6.22336L29.7327 12.6595C30.894 13.8208 30.3343 14.8701 29.173 15.9754L23.6324 21.5161L20.1625 18.0462C18.9592 16.8429 17.4481 16.3812 16.1889 17.6404C14.9296 18.8997 15.6852 20.103 16.8885 21.3202L20.7081 25.1399L23.2826 27.7143Z" fill="white"/>
<path d="M22.9883 27.4618C23.8977 28.3713 25.1989 28.9169 26.4582 27.6577C27.7174 26.3985 27.0598 24.9853 26.2623 24.1878" fill="white"/>
</svg>
