<svg width="132" height="25" viewBox="0 0 132 25" fill="none" xmlns="http://www.w3.org/2000/svg">
<path d="M54.0102 8.44246V10.9762H46.0273V2.28406H49.1308V8.44246H54.0102Z" fill="white"/>
<path d="M63.0998 8.76376V10.9762H55.0078V2.28406H63.0634V4.49646H58.1112V5.56326H62.8149V7.59996H58.1112V8.76376H63.0998Z" fill="white"/>
<path d="M74.3101 2.28406V10.9762H70.352L67.2971 5.49055V10.9762H64.5391V2.28406H68.6245L71.5643 7.67266V2.28406H74.3101Z" fill="white"/>
<path d="M79.9037 11.2367C79.0827 11.2367 78.3127 11.1397 77.5937 10.9458C76.8786 10.7478 76.2542 10.4851 75.7208 10.1578V7.90903C76.2704 8.25253 76.8764 8.52533 77.5396 8.72733C78.2016 8.92533 78.8747 9.02434 79.5577 9.02434C80.0507 9.02434 80.4167 8.97994 80.6547 8.89104C80.8937 8.80214 81.0126 8.66064 81.0126 8.46674C81.0126 8.29694 80.9297 8.16163 80.7637 8.06053C80.5987 7.95953 80.3037 7.87263 79.8787 7.79993L78.6427 7.57564C77.6117 7.38974 76.8563 7.07254 76.3755 6.62404C75.8986 6.17544 75.6602 5.58143 75.6602 4.84193C75.6602 4.28023 75.8239 3.78933 76.1512 3.36903C76.4826 2.94473 76.9796 2.61543 77.6427 2.38103C78.3087 2.14263 79.1297 2.02344 80.1037 2.02344C80.9357 2.02344 81.6527 2.10824 82.2547 2.27794C82.8607 2.44774 83.3607 2.65383 83.7527 2.89623V5.05414C83.3847 4.84804 82.9156 4.67024 82.3456 4.52074C81.7806 4.37124 81.1657 4.29643 80.5037 4.29643C79.4367 4.29643 78.9027 4.47023 78.9027 4.81773C78.9027 4.91473 78.9317 4.99553 78.9877 5.06013C79.0487 5.12083 79.1517 5.17334 79.2967 5.21774C79.4427 5.26224 79.6507 5.30263 79.9217 5.33904L81.3097 5.56323C81.9927 5.67643 82.5497 5.84414 82.9827 6.06634C83.4147 6.28454 83.7377 6.57354 83.9527 6.93314C84.1667 7.28874 84.2737 7.72923 84.2737 8.25453C84.2737 8.85263 84.0917 9.37794 83.7277 9.83054C83.3687 10.279 82.8567 10.6265 82.1947 10.873C81.5357 11.1155 80.7717 11.2367 79.9037 11.2367Z" fill="white"/>
<path d="M52.0342 13.8582C52.7858 13.8582 53.4182 13.9914 53.9314 14.2581C54.4487 14.5208 54.8366 14.8927 55.0952 15.3735C55.3579 15.8544 55.4892 16.4181 55.4892 17.0647C55.4892 17.7032 55.3397 18.2669 55.0407 18.7558C54.7457 19.2407 54.3032 19.6205 53.7132 19.8953C53.1232 20.166 52.4039 20.3015 51.5553 20.3015H49.1308V22.5623H46.0273V13.8582H52.0342ZM50.7431 18.3315C51.2482 18.3315 51.6341 18.2285 51.9008 18.0224C52.1716 17.8123 52.307 17.5213 52.307 17.1495C52.307 16.7899 52.1857 16.511 51.9433 16.313C51.7049 16.1109 51.3634 16.0099 50.9189 16.0099H49.1308V18.3315H50.7431Z" fill="white"/>
<path d="M62.4451 22.5623L59.6387 18.9982V22.5623H56.5352V13.8702H62.6573C63.3361 13.8702 63.9281 13.9914 64.4333 14.2339C64.9384 14.4764 65.3263 14.8198 65.5971 15.2643C65.8718 15.7048 66.0092 16.218 66.0092 16.8039C66.0092 17.3131 65.9062 17.7697 65.7001 18.1738C65.494 18.5739 65.2031 18.8951 64.8273 19.1376C64.4514 19.376 64.015 19.5154 63.518 19.5558L66.0941 22.5623H62.4451ZM61.3904 18.0829C61.8471 18.0829 62.1946 17.994 62.433 17.8162C62.6714 17.6384 62.7906 17.3798 62.7906 17.0403C62.7906 16.7171 62.6795 16.4726 62.4572 16.3069C62.239 16.1412 61.9117 16.0584 61.4753 16.0584H59.6387V18.0829H61.3904Z" fill="white"/>
<path d="M72.503 22.8472C71.3756 22.8472 70.3835 22.6391 69.5269 22.2229C68.6702 21.8066 68.0095 21.2429 67.5448 20.5317C67.0801 19.8205 66.8477 19.0325 66.8477 18.1678C66.8477 17.2868 67.078 16.5009 67.5387 15.8099C68.0034 15.1148 68.6641 14.5713 69.5208 14.1793C70.3775 13.7833 71.3756 13.5853 72.5151 13.5853C73.6466 13.5853 74.6387 13.7833 75.4913 14.1793C76.348 14.5713 77.0067 15.1148 77.4673 15.8099C77.9325 16.5009 78.1645 17.2868 78.1645 18.1678C78.1645 19.0366 77.9305 19.8266 77.4613 20.5378C76.9966 21.249 76.3359 21.8127 75.4792 22.2289C74.6225 22.6411 73.6304 22.8472 72.503 22.8472ZM72.503 20.3256C72.9677 20.3256 73.3759 20.2367 73.7274 20.0589C74.079 19.8771 74.3497 19.6245 74.5397 19.3012C74.7296 18.978 74.8245 18.6082 74.8245 18.192C74.8245 17.7798 74.7296 17.4161 74.5397 17.101C74.3497 16.7858 74.079 16.5413 73.7274 16.3675C73.3759 16.1938 72.9677 16.1069 72.503 16.1069C72.0343 16.1069 71.6241 16.1938 71.2725 16.3675C70.921 16.5413 70.6482 16.7858 70.4543 17.101C70.2643 17.4161 70.1694 17.7798 70.1694 18.192C70.1694 18.6082 70.2643 18.978 70.4543 19.3012C70.6482 19.6245 70.921 19.8771 71.2725 20.0589C71.6241 20.2367 72.0343 20.3256 72.503 20.3256Z" fill="white"/>
<path d="M87.6131 16.319H84.6551V22.5623H81.5511V16.319H78.5391V13.8702H87.6131V16.319Z" fill="white"/>
<path d="M93.6326 22.8472C92.5046 22.8472 91.5126 22.6391 90.6556 22.2229C89.7996 21.8066 89.1386 21.2429 88.6736 20.5317C88.2096 19.8205 87.9766 19.0325 87.9766 18.1678C87.9766 17.2868 88.2076 16.5009 88.6676 15.8099C89.1326 15.1148 89.7936 14.5713 90.6496 14.1793C91.5066 13.7833 92.5046 13.5853 93.6446 13.5853C94.7756 13.5853 95.7676 13.7833 96.6206 14.1793C97.4776 14.5713 98.1356 15.1148 98.5966 15.8099C99.0616 16.5009 99.2936 17.2868 99.2936 18.1678C99.2936 19.0366 99.0596 19.8266 98.5906 20.5378C98.1256 21.249 97.4646 21.8127 96.6086 22.2289C95.7516 22.6411 94.7596 22.8472 93.6326 22.8472ZM93.6326 20.3256C94.0966 20.3256 94.5046 20.2367 94.8566 20.0589C95.2086 19.8771 95.4786 19.6245 95.6686 19.3012C95.8586 18.978 95.9536 18.6082 95.9536 18.192C95.9536 17.7798 95.8586 17.4161 95.6686 17.101C95.4786 16.7858 95.2086 16.5413 94.8566 16.3675C94.5046 16.1938 94.0966 16.1069 93.6326 16.1069C93.1636 16.1069 92.7536 16.1938 92.4016 16.3675C92.0506 16.5413 91.7776 16.7858 91.5836 17.101C91.3936 17.4161 91.2986 17.7798 91.2986 18.192C91.2986 18.6082 91.3936 18.978 91.5836 19.3012C91.7776 19.6245 92.0506 19.8771 92.4016 20.0589C92.7536 20.2367 93.1636 20.3256 93.6326 20.3256Z" fill="white"/>
<path d="M105.766 22.8472C104.586 22.8472 103.567 22.6492 102.711 22.2532C101.858 21.8531 101.209 21.3076 100.765 20.6166C100.32 19.9215 100.098 19.1376 100.098 18.2647C100.098 17.3798 100.324 16.5837 100.777 15.8765C101.23 15.1653 101.89 14.6057 102.759 14.1975C103.628 13.7894 104.66 13.5853 105.857 13.5853C106.588 13.5853 107.257 13.6581 107.863 13.8035C108.473 13.949 109.053 14.1591 109.602 14.4339V16.9979C109.251 16.7514 108.81 16.5514 108.281 16.3978C107.756 16.2443 107.196 16.1675 106.602 16.1675C105.951 16.1675 105.392 16.2524 104.923 16.4221C104.454 16.5918 104.097 16.8302 103.85 17.1373C103.608 17.4404 103.487 17.792 103.487 18.192C103.487 18.5961 103.61 18.9537 103.856 19.2649C104.107 19.572 104.466 19.8124 104.935 19.9862C105.404 20.1559 105.96 20.2408 106.602 20.2408C107.216 20.2408 107.788 20.1599 108.317 19.9983C108.847 19.8326 109.283 19.6124 109.627 19.3376V21.841C109.033 22.1885 108.433 22.4431 107.826 22.6047C107.224 22.7664 106.537 22.8472 105.766 22.8472Z" fill="white"/>
<path d="M116.264 22.8472C115.137 22.8472 114.145 22.6391 113.288 22.2229C112.431 21.8066 111.77 21.2429 111.306 20.5317C110.841 19.8205 110.609 19.0325 110.609 18.1678C110.609 17.2868 110.839 16.5009 111.3 15.8099C111.764 15.1148 112.425 14.5713 113.282 14.1793C114.138 13.7833 115.137 13.5853 116.276 13.5853C117.408 13.5853 118.4 13.7833 119.252 14.1793C120.109 14.5713 120.768 15.1148 121.228 15.8099C121.693 16.5009 121.925 17.2868 121.925 18.1678C121.925 19.0366 121.691 19.8266 121.222 20.5378C120.758 21.249 120.097 21.8127 119.24 22.2289C118.383 22.6411 117.391 22.8472 116.264 22.8472ZM116.264 20.3256C116.729 20.3256 117.137 20.2367 117.488 20.0589C117.84 19.8771 118.111 19.6245 118.301 19.3012C118.491 18.978 118.586 18.6082 118.586 18.192C118.586 17.7798 118.491 17.4161 118.301 17.101C118.111 16.7858 117.84 16.5413 117.488 16.3675C117.137 16.1938 116.729 16.1069 116.264 16.1069C115.795 16.1069 115.385 16.1938 115.034 16.3675C114.682 16.5413 114.409 16.7858 114.215 17.101C114.025 17.4161 113.93 17.7798 113.93 18.192C113.93 18.6082 114.025 18.978 114.215 19.3012C114.409 19.6245 114.682 19.8771 115.034 20.0589C115.385 20.2367 115.795 20.3256 116.264 20.3256Z" fill="white"/>
<path d="M131.135 20.0286V22.5623H123.152V13.8702H126.255V20.0286H131.135Z" fill="white"/>
<path fill-rule="evenodd" clip-rule="evenodd" d="M26.7269 6.53638C28.2871 5.24048 30.0281 4.74737 31.6977 4.87197C33.4787 5.00497 35.1268 5.83598 36.3576 7.04298C37.5885 8.25008 38.4341 9.86467 38.5694 11.6071C38.706 13.3655 38.1146 15.2071 36.5552 16.8235C36.4126 16.9722 36.2668 17.1192 36.118 17.2643C29.0453 24.1995 19.6502 24.2178 19.5541 24.2178C19.5061 24.2178 10.0807 24.2174 2.98965 17.2633L2.98805 17.2618C2.84165 17.1173 2.69754 16.972 2.55554 16.8257L2.55434 16.8245C0.994245 15.2096 0.402245 13.3684 0.538445 11.61C0.673345 9.86787 1.51834 8.25307 2.74884 7.04557C3.97934 5.83807 5.62724 5.00647 7.40855 4.87297C9.07804 4.74777 10.8193 5.24028 12.3805 6.53558C12.5483 4.53768 13.423 2.98277 14.6925 1.91387C16.0466 0.773772 17.8112 0.217773 19.5536 0.217773C21.2961 0.217773 23.0607 0.773772 24.4147 1.91387C25.6845 2.98297 26.5592 4.53818 26.7269 6.53638ZM24.8672 13.8845C24.6738 13.8845 24.6068 14.1586 24.7302 14.3037C24.9488 14.5609 25.0802 14.8917 25.0802 15.2526C25.0802 16.0716 24.4033 16.7355 23.5682 16.7355C22.7331 16.7355 22.0561 16.0716 22.0561 15.2526C22.0561 15.2088 21.9978 15.187 21.9715 15.2225C21.733 15.5437 21.572 15.9043 21.5058 16.283C21.4686 16.4962 21.2919 16.6728 21.0698 16.6728H20.9472C20.6573 16.6728 20.4182 16.4424 20.461 16.1632C20.7542 14.2499 22.6771 12.8623 24.8672 12.8623C27.0574 12.8623 28.9802 14.2499 29.2735 16.1632C29.3162 16.4424 29.0771 16.6728 28.7873 16.6728C28.4975 16.6728 28.268 16.4413 28.205 16.1657C27.9183 14.9116 26.5894 13.8845 24.8672 13.8845ZM11.44 15.2526C11.44 15.1948 11.3636 15.1638 11.3277 15.2098C11.0727 15.536 10.899 15.9055 10.8255 16.2949C10.7821 16.5249 10.5913 16.716 10.3512 16.716H10.2612C9.97145 16.716 9.73235 16.4856 9.77505 16.2064C10.0681 14.2921 11.9912 12.9054 14.1813 12.9054C16.3714 12.9054 18.2945 14.2921 18.5875 16.2064C18.6303 16.4856 18.3912 16.716 18.1014 16.716C17.8116 16.716 17.5821 16.4844 17.5191 16.2089C17.2326 14.954 15.9037 13.9277 14.1813 13.9277C14.0247 13.9277 13.9674 14.1433 14.0722 14.2565C14.3158 14.5198 14.4641 14.8692 14.4641 15.2526C14.4641 16.0716 13.7872 16.7355 12.9521 16.7355C12.117 16.7355 11.44 16.0716 11.44 15.2526ZM21.2357 18.8286C21.4406 18.6289 21.7571 18.5318 22.0114 18.6672C22.2658 18.8025 22.3623 19.1168 22.179 19.3354C21.582 20.0476 20.6155 20.4988 19.5496 20.4988C18.4842 20.4988 17.5156 20.0523 16.9178 19.3348C16.7352 19.1156 16.8329 18.8016 17.0877 18.6672C17.3425 18.5327 17.6586 18.631 17.8631 18.831C18.2571 19.2162 18.855 19.4766 19.5496 19.4766C20.2423 19.4766 20.8409 19.2136 21.2357 18.8286Z" fill="white"/>
</svg>
