<svg width="180" height="24" viewBox="0 0 180 24" fill="none" xmlns="http://www.w3.org/2000/svg">
<path d="M55.249 3.00021C56.5164 1.36461 58.157 0.978565 60.0415 1.08016C61.7711 1.17413 63.5108 1.14873 65.243 1.08777C67.3637 1.01412 69.0018 1.82684 69.906 3.71896C70.8711 5.73807 70.805 7.80797 69.5656 9.74834C69.3624 10.0658 69.0907 10.3376 68.7427 10.7642C71.4171 12.8697 70.7796 15.8742 70.706 18.6934C70.6374 21.2509 68.2729 23.4148 65.6798 23.4605C63.3534 23.5011 61.027 23.4681 58.7005 23.4706C56.6408 23.4706 55.0408 22.6224 54.2915 20.6871C53.5753 18.833 53.8115 17.0273 55.2719 15.5263C55.4166 15.379 55.6351 15.3053 55.6706 15.285C54.9569 13.7307 54.3322 12.377 53.6947 10.9903C52.8566 11.9808 52.5391 13.7332 50.7689 14.071C49.1739 14.3732 48.0183 13.6367 47.2132 11.7344C46.6088 12.0113 46.0272 12.377 45.3948 12.5421C44.8005 12.697 44.1503 12.6386 43.3426 12.6818C43.3426 14.8279 43.2893 16.9257 43.3604 19.0184C43.4214 20.809 43.0633 22.4598 41.2524 23.077C39.2359 23.7653 37.0187 24.0421 35.2586 22.4624C34.6033 21.8757 34.2122 20.7252 34.1513 19.8007C33.9963 17.4921 34.1005 15.1656 34.1005 12.6208C32.3988 12.7376 30.814 12.5548 29.7956 10.9649C29.0946 11.7217 27.8603 11.8309 28.0736 13.2634C28.1828 13.9974 28.287 14.4215 29.0133 14.7948C30.9359 15.7828 31.8071 17.8781 31.322 19.9429C30.8648 21.8909 29.1251 23.3716 27.0171 23.4427C24.8634 23.5164 22.6817 23.6484 20.556 23.3894C19.2251 23.2268 17.9756 22.3862 16.599 21.8122C15.8904 23.1278 14.4453 23.524 12.7157 23.4833C10.0515 23.4224 7.38733 23.4732 4.72313 23.4681C2.22655 23.463 0.865237 22.1296 0.860157 19.6534C0.852538 14.8025 0.852538 9.9439 0.872856 5.08789C0.883015 2.33225 2.13765 1.12333 4.91615 1.12079C7.86734 1.12079 8.92642 1.7024 9.45469 3.70118C9.59184 4.22183 9.58676 4.78566 9.5893 5.32917C9.60199 8.10512 9.59438 10.8836 9.59438 13.8221H14.7018C14.7018 12.7326 14.6993 11.4855 14.7018 10.236C14.7094 7.92226 15.0904 5.69489 16.3831 3.71896C17.4905 2.03002 18.9407 0.955707 21.102 1.08269C22.3668 1.15889 23.6418 1.15127 24.9066 1.08269C26.725 0.981105 28.3479 1.37731 29.7677 2.75385C30.7277 1.22746 32.1703 1.05222 33.7703 1.08269C37.1101 1.14365 40.4549 1.03698 43.7922 1.12841C44.9935 1.16143 46.1846 1.55763 47.8228 1.87256C50.9314 0.234417 52.6813 0.40204 55.249 3.00275V3.00021ZM61.2505 11.1046C61.2251 10.9268 61.2022 10.7465 61.1768 10.5687C61.5298 10.4874 61.8829 10.3503 62.2384 10.3376C63.2086 10.3045 64.1813 10.3299 65.1515 10.3223C67.6379 10.302 68.9027 9.05499 68.9358 6.60412C68.9713 3.89928 67.7878 2.57353 65.248 2.53036C63.3889 2.49734 61.5298 2.51512 59.6733 2.52274C57.4535 2.53036 55.8154 3.78245 55.5843 5.9768C55.3938 7.80035 55.3938 9.67723 55.5944 11.4982C55.8281 13.6316 57.3621 14.7669 59.5463 14.772C60.6435 14.7745 61.7432 14.744 62.8403 14.7974C63.1553 14.8126 63.4575 15.0615 63.7648 15.2037C63.4423 15.3688 63.1248 15.6634 62.7946 15.6761C61.3597 15.7295 59.9196 15.6482 58.4872 15.7142C56.5189 15.8057 55.4446 17.0349 55.4979 19.0134C55.5462 20.8547 56.6281 21.8808 58.5761 21.8909C60.9 21.9036 63.2239 21.9036 65.5452 21.8884C67.4424 21.8757 68.7758 20.8649 69.1212 18.988C69.332 17.84 69.3396 16.6387 69.3015 15.4679C69.2101 12.5421 67.6862 11.1198 64.7375 11.1071C63.5743 11.102 62.4137 11.1071 61.2505 11.1071V11.1046ZM23.7738 21.896V21.8858C24.8304 21.8858 25.8894 21.9315 26.9434 21.8655C27.4692 21.8325 28.0406 21.6979 28.4902 21.4338C29.6661 20.7404 30.1639 19.4451 29.8515 18.1829C29.4832 16.6946 28.4292 15.7726 26.8977 15.699C25.7599 15.6457 24.6145 15.7066 23.4767 15.6584C23.2811 15.6507 23.0957 15.3536 22.9052 15.191C23.0856 15.0564 23.2583 14.8177 23.4462 14.8025C24.1192 14.7491 24.7974 14.7542 25.4729 14.7669C26.4228 14.7872 26.5549 14.1751 26.5777 13.4284C26.6031 12.631 26.3466 12.1078 25.4526 12.1078C24.8608 12.1078 24.264 12.1433 23.6799 12.0773C23.4081 12.0468 23.1617 11.8106 22.9052 11.6684C23.1491 11.516 23.3802 11.262 23.6392 11.2316C24.2234 11.163 24.8202 11.2112 25.412 11.2062C27.9822 11.1808 29.7804 9.46643 29.8261 7.0054C29.8743 4.38946 28.2032 2.60909 25.5694 2.5329C24.1345 2.48972 22.6944 2.54051 21.2595 2.5202C19.5147 2.49734 18.2549 3.28974 17.4778 4.80598C17.079 5.58568 16.5939 6.4238 16.5381 7.26192C16.345 10.1572 16.1444 13.0729 16.3171 15.958C16.4009 17.393 17.173 18.8381 17.8435 20.1766C18.4454 21.3779 19.568 21.9747 20.9877 21.9061C21.9147 21.863 22.8468 21.8985 23.7764 21.8985L23.7738 21.896ZM35.5304 11.196C35.5304 13.5453 35.5304 15.7269 35.5304 17.9086C35.5304 21.7665 35.7589 21.9874 39.6295 21.8858C41.1585 21.8452 41.7604 21.2661 41.7807 19.722C41.8061 17.8248 41.7832 15.925 41.7807 14.0278C41.7807 12.2229 42.6671 11.2807 44.4398 11.2011C45.7326 11.1427 46.5046 10.429 46.5326 9.16674C46.5681 7.60733 46.5656 6.04538 46.53 4.48597C46.5021 3.29736 45.8113 2.54813 44.6557 2.54051C40.7267 2.51004 36.8002 2.50242 32.8712 2.54051C31.576 2.55321 30.9359 3.25673 30.9131 4.53168C30.8877 6.09109 30.8978 7.65304 30.9309 9.21245C30.9563 10.4493 31.6369 11.1274 32.8992 11.1884C33.6967 11.2265 34.4992 11.196 35.5304 11.196ZM8.15687 15.3841C8.15687 12.0417 8.15687 8.92292 8.15687 5.8041C8.15687 3.06624 7.57273 2.49226 4.81456 2.52782C3.15356 2.55067 2.31544 3.22625 2.29766 4.85423C2.2494 9.83723 2.25702 14.8228 2.30274 19.8058C2.31544 21.2712 3.07228 21.8808 4.57836 21.8858C6.94541 21.8935 9.31754 21.8274 11.6821 21.9061C15.5349 22.0357 15.6288 21.5074 15.5323 17.8705C15.4891 16.212 14.6967 15.4145 13.0103 15.3866C11.4535 15.3612 9.89661 15.3815 8.15433 15.3815L8.15687 15.3841ZM49.7631 8.9153C49.4279 9.62643 49.0088 10.1725 48.9428 10.7617C48.8819 11.2925 49.1028 12.2678 49.3873 12.3414C49.9587 12.4938 50.9898 12.3871 51.2489 11.9986C52.3156 10.3934 53.2375 8.6791 54.0731 6.93683C54.7182 5.5933 54.3703 4.28533 53.3518 3.21355C52.5899 2.41099 50.5403 2.14431 49.4177 2.68274C48.0641 3.33038 47.6551 4.49613 47.7009 5.91585C47.7466 7.32541 48.4526 8.27528 49.7657 8.9153H49.7631Z" fill="white"/>
<path d="M166.434 22.3169C163.247 24.3512 160.532 23.7925 158.8 20.6864C158.015 22.1518 156.989 23.2642 155.29 23.4471C153.717 23.6173 152.257 23.3506 151.076 22.2407C148.069 24.2243 144.577 24.0185 142.141 21.6743C140.556 23.9144 138.174 23.5563 135.927 23.4217C133.923 23.3023 132.399 21.621 132.381 19.6095C132.338 14.7129 132.335 9.81369 132.381 4.9145C132.401 2.70237 134.075 1.14042 136.28 1.10232C136.701 1.09471 137.128 1.12772 137.547 1.09471C139.35 0.957559 141.014 1.18868 142.116 2.83444C144.935 0.228649 149.131 0.342938 151.498 2.88015C156.341 0.205791 161.075 0.335319 166.043 2.78872C166.774 1.24709 168.321 1.01089 170.076 1.07947C172.06 1.1582 174.051 1.08455 176.037 1.10232C177.807 1.11756 179.166 2.16902 179.374 3.91637C179.547 5.36911 179.519 6.86249 179.433 8.32793C179.354 9.70194 178.554 10.7585 177.276 11.208C176.273 11.561 176.629 12.2544 176.603 12.8487C176.575 13.4659 176.367 14.111 177.312 14.4716C178.851 15.0583 179.473 16.3485 179.514 17.9841C179.62 22.2001 178.602 23.729 173.939 23.4649C172.717 23.3963 171.486 23.4141 170.261 23.4649C168.829 23.5233 167.48 23.3709 166.434 22.3144V22.3169ZM141.194 11.2994C141.194 9.80099 141.123 8.3711 141.207 6.95138C141.499 2.03695 139.556 2.45601 136.473 2.53983C134.776 2.58554 133.92 3.49223 133.915 5.18879C133.9 9.83146 133.9 14.4716 133.928 19.1143C133.94 21.1359 134.697 21.8648 136.683 21.8902C137.359 21.8978 138.037 21.908 138.713 21.8902C140.295 21.8521 141.176 20.9531 141.196 19.3555C141.212 18.106 141.199 16.8564 141.199 15.5739H143.124C143.124 16.8691 143.106 18.0806 143.129 19.2921C143.16 20.9175 144.117 21.8648 145.72 21.8851C146.395 21.8953 147.071 21.8928 147.749 21.8928C149.682 21.8928 150.462 21.0673 150.454 19.099C150.436 14.5427 150.426 9.98385 150.431 5.42753C150.431 3.39318 149.664 2.56268 147.66 2.52205C147.195 2.51189 146.731 2.51951 146.266 2.52205C143.995 2.53983 143.137 3.39064 143.129 5.65357C143.122 7.53299 143.129 9.4124 143.129 11.2969H141.202L141.194 11.2994ZM160.234 17.1815C160.234 17.9968 160.161 18.8324 160.25 19.6502C160.44 21.3747 161.382 21.9867 163.526 21.8928C165.083 21.8242 166.035 20.9048 166.045 19.3428C166.071 15.3377 166.091 11.3299 166.045 7.32473C166.02 5.0872 164.435 3.08333 162.231 2.75063C160.412 2.47633 158.535 2.53221 156.684 2.53475C153.606 2.53983 151.528 4.6402 151.516 7.70823C151.498 11.5026 151.503 15.2996 151.513 19.094C151.518 21.0064 152.455 21.8953 154.418 21.9029C156.496 21.9105 157.225 21.1994 157.283 19.127C157.347 16.9123 156.872 17.0317 159.544 17.052C159.706 17.052 159.869 17.1104 160.232 17.1815H160.234ZM175.166 10.0778C177.675 9.74511 177.998 9.35907 177.998 6.87265C177.998 6.15644 178.018 5.43769 177.992 4.72148C177.939 3.28905 177.22 2.56014 175.773 2.53221C174.168 2.49919 172.56 2.59316 170.96 2.50935C167.356 2.32395 166.912 3.19508 167.036 6.46375C167.145 9.38193 167.206 9.54955 169.931 10.1134V15.5612C167.404 15.9294 166.988 16.4247 167.028 18.9695C167.036 19.4292 167.105 19.8889 167.173 20.3461C167.331 21.3848 167.976 21.8877 169.002 21.8928C171.366 21.9055 173.736 21.9766 176.093 21.842C176.697 21.8064 177.54 21.2248 177.799 20.6711C178.93 18.2584 177.784 16.064 175.168 15.5053V10.0778H175.166ZM167.882 11.2156L167.546 11.396V14.3497C168.509 14.0881 168.623 13.8544 168.443 12.1833C168.405 11.843 168.077 11.5356 167.882 11.2156Z" fill="white"/>
<path d="M121.44 12.6751C121.44 14.9152 121.44 17.0587 121.44 19.2048C121.44 22.1103 120.092 23.4564 117.176 23.4691C116.668 23.4691 116.16 23.4919 115.655 23.4589C113.549 23.3268 112.122 21.8716 112.091 19.7636C112.056 17.4448 112.084 15.126 112.084 12.6472C110.42 12.6853 108.851 12.571 107.891 10.9404C107.136 11.7151 105.902 11.8979 106.171 13.3608C106.296 14.0389 106.415 14.4428 107.083 14.7958C108.983 15.8015 109.915 17.8892 109.465 19.7966C108.962 21.9325 107.141 23.4183 104.876 23.464C102.89 23.5046 100.899 23.497 98.9126 23.4665C96.985 23.4386 96.096 22.8341 93.9906 20.2156C92.7969 21.8106 91.3645 23.1745 89.3098 23.3116C87.0012 23.464 84.6468 23.5884 82.3611 23.3091C79.4429 22.951 77.2053 20.4112 77.0961 17.3356C76.9768 13.9729 77.0504 10.5773 77.3984 7.2324C77.5508 5.77205 78.4422 4.30661 79.2752 3.02403C80.1311 1.7059 81.5077 1.02524 83.1865 1.08874C84.6646 1.14461 86.1529 1.17763 87.626 1.08112C90.3689 0.905874 92.5353 1.75669 93.8865 4.43105C94.1506 4.09073 94.3512 3.85961 94.5239 3.61071C95.6744 1.92686 97.1653 0.938891 99.3063 1.0862C100.444 1.16493 101.592 1.14207 102.73 1.09128C104.602 1.01 106.367 1.21826 107.825 2.79291C108.901 1.09636 110.474 1.05572 112.135 1.08112C115.601 1.13699 119.071 1.09128 122.54 1.10651C124.798 1.11667 126.07 2.37639 126.098 4.619C126.116 6.01332 126.108 7.40765 126.103 8.80197C126.096 11.3493 124.902 12.5456 122.306 12.6218C122.098 12.6268 121.89 12.6497 121.443 12.6802L121.44 12.6751ZM84.4665 16.6651C84.4665 15.2149 84.5122 13.9145 84.4538 12.6192C84.4056 11.5449 84.7535 11.1233 85.8989 11.1843C87.2348 11.2554 88.6419 11.329 89.9168 11.0039C91.9105 10.4985 93.1956 8.3118 92.9315 6.41206C92.6267 4.22533 91.108 2.71418 88.8831 2.58719C86.9453 2.47798 84.9872 2.41957 83.0569 2.57703C82.2163 2.64561 81.1648 3.10784 80.667 3.74532C79.867 4.77138 79.0467 6.05904 78.9425 7.29336C78.6555 10.7703 78.5819 14.2802 78.7165 17.7673C78.8079 20.1394 80.9845 21.8538 83.3795 21.8817C85.071 21.902 86.7624 21.9046 88.4514 21.8792C90.2368 21.8538 91.5626 21.0233 92.5378 19.535C93.6833 17.7902 93.2287 15.86 93.2515 13.9907C93.2668 12.8376 92.5074 12.1164 91.3442 12.0833C89.7822 12.0402 88.2152 12.0427 86.6532 12.096C86.285 12.1087 85.6475 12.3627 85.6145 12.5786C85.4824 13.4396 85.4088 14.359 85.5992 15.192C85.6678 15.4917 86.5516 15.5907 87.0469 15.8168C87.245 15.9082 87.3999 16.0962 87.5752 16.2384C87.4025 16.3781 87.2348 16.627 87.052 16.6371C86.2977 16.6828 85.5383 16.6574 84.464 16.6574L84.4665 16.6651ZM101.861 21.8919C102.831 21.8919 103.804 21.902 104.774 21.8919C106.727 21.8665 108.041 20.6093 108.02 18.801C108 17.0308 106.628 15.7253 104.726 15.6873C103.84 15.6695 102.948 15.7304 102.067 15.6619C101.686 15.6314 101.323 15.3622 100.952 15.2022C101.343 15.0574 101.724 14.8593 102.128 14.7831C102.494 14.712 102.885 14.7577 103.266 14.778C104.198 14.8288 104.66 14.4682 104.688 13.47C104.716 12.4719 104.294 12.0757 103.345 12.1011C102.796 12.1164 102.24 12.1545 101.701 12.0808C101.437 12.0452 101.203 11.7836 100.955 11.6262C101.219 11.4865 101.473 11.2452 101.747 11.2249C102.461 11.169 103.182 11.2325 103.898 11.2046C106.004 11.1182 107.769 9.37342 107.947 7.23748C108.132 4.99488 106.692 2.92752 104.495 2.69132C102.491 2.47798 100.449 2.51862 98.4326 2.61005C97.7901 2.64053 96.957 3.03927 96.5862 3.54468C95.8065 4.60376 94.8744 5.79744 94.7246 7.02414C94.3792 9.85089 94.3208 12.7361 94.4376 15.5831C94.496 16.9952 95.0522 18.448 95.6516 19.7585C96.3246 21.2315 97.5793 22.0519 99.3292 21.9071C100.167 21.8385 101.018 21.8944 101.861 21.8944V21.8919ZM116.879 2.51862V2.5237C114.977 2.5237 113.074 2.48814 111.172 2.53386C109.602 2.57449 108.884 3.35166 108.861 4.91869C108.843 6.14285 108.851 7.36701 108.858 8.59117C108.868 10.3969 109.674 11.1944 111.482 11.1995C111.863 11.1995 112.246 11.2274 112.622 11.1919C113.399 11.1157 113.669 11.456 113.658 12.2129C113.628 14.1126 113.717 16.0149 113.641 17.9121C113.468 22.1738 114.408 21.9579 117.841 21.8868C119.208 21.8589 119.904 21.1096 119.911 19.7255C119.921 17.6987 119.911 15.672 119.911 13.6453C119.911 12.0486 120.705 11.2342 122.291 11.202C123.922 11.169 124.661 10.43 124.678 8.7715C124.694 7.46352 124.696 6.15301 124.671 4.84503C124.64 3.23229 123.944 2.53894 122.337 2.52116C120.518 2.50338 118.7 2.51608 116.884 2.51608L116.879 2.51862Z" fill="white"/>
<path d="M158.889 13.1027C157.96 13.156 157.226 13.2576 157.307 12.1045C157.386 10.9718 157.896 10.3369 158.864 10.3902C160.085 10.4562 160.159 11.3401 160.21 12.2696C160.284 13.6182 159.217 12.8766 158.889 13.1001V13.1027Z" fill="white"/>
</svg>
