<svg width="32" height="32" viewBox="0 0 32 32" fill="none" xmlns="http://www.w3.org/2000/svg">
<path d="M12 19.25C12.6904 19.25 13.25 18.6904 13.25 18C13.25 17.3096 12.6904 16.75 12 16.75C11.3096 16.75 10.75 17.3096 10.75 18C10.75 18.6904 11.3096 19.25 12 19.25Z" fill="white"/>
<path d="M20 19.25C20.6904 19.25 21.25 18.6904 21.25 18C21.25 17.3096 20.6904 16.75 20 16.75C19.3096 16.75 18.75 17.3096 18.75 18C18.75 18.6904 19.3096 19.25 20 19.25Z" fill="white"/>
<path d="M9.30078 10C11.4687 9.3215 13.729 8.98414 16.0006 9.00005C18.2721 8.98414 20.5324 9.32149 22.7003 10" stroke="white" stroke-width="1.5" stroke-linecap="round" stroke-linejoin="round"/>
<path d="M22.7001 22C20.5322 22.6785 18.272 23.0159 16.0005 23C13.7289 23.0159 11.4687 22.6785 9.30078 22" stroke="white" stroke-width="1.5" stroke-linecap="round" stroke-linejoin="round"/>
<path d="M19.3789 22.761L20.8821 25.7673C20.9822 25.9692 21.1479 26.1312 21.3521 26.2268C21.5562 26.3224 21.7867 26.3459 22.006 26.2934C25.0733 25.5435 27.7176 24.236 29.6435 22.5621C29.7906 22.4356 29.898 22.2694 29.9528 22.0833C30.0076 21.8973 30.0075 21.6994 29.9525 21.5134L25.7058 7.35758C25.6629 7.21484 25.5887 7.08345 25.4887 6.97298C25.3886 6.8625 25.2652 6.77572 25.1274 6.71895C23.9277 6.22773 22.6868 5.84361 21.4194 5.57108C21.1779 5.51817 20.9254 5.55637 20.7103 5.67834C20.4953 5.80032 20.3329 5.99746 20.2545 6.23189L19.2578 9.22184" stroke="white" stroke-width="1.5" stroke-linecap="round" stroke-linejoin="round"/>
<path d="M12.6188 22.7609L11.1156 25.7673C11.0155 25.9692 10.8498 26.1312 10.6456 26.2268C10.4415 26.3224 10.211 26.3458 9.99174 26.2934C6.92441 25.5435 4.28015 24.2361 2.35424 22.5621C2.20716 22.4356 2.09976 22.2694 2.04494 22.0833C1.99012 21.8973 1.99023 21.6994 2.04524 21.5134L6.29197 7.35757C6.33484 7.21483 6.40899 7.08345 6.50903 6.97297C6.60908 6.8625 6.73249 6.77571 6.87029 6.71894C8.07004 6.22772 9.31089 5.84361 10.5783 5.57108C10.8198 5.51817 11.0723 5.55637 11.2874 5.67834C11.5024 5.80032 11.6648 5.99746 11.7432 6.23189L12.7399 9.22184" stroke="white" stroke-width="1.5" stroke-linecap="round" stroke-linejoin="round"/>
</svg>
