<svg width="32" height="32" viewBox="0 0 32 32" fill="none" xmlns="http://www.w3.org/2000/svg">
<path d="M6.00068 25C6.00068 25 11.0007 24 12.0007 21C12.0007 21 4.00068 18 6.00068 7C6.00068 7 10.0007 12 16.0007 13V11.0004C16.0008 9.85156 16.3964 8.73783 17.1211 7.84641C17.8457 6.95498 18.8552 6.34023 19.9797 6.10551C21.1043 5.87078 22.2754 6.0304 23.2961 6.55752C24.3168 7.08464 25.125 7.94712 25.5846 8.99996L30.0007 9L26.0007 13C26.0007 20 21.0007 27 12.0007 27C8.00068 27 6.00068 25 6.00068 25Z" stroke="white" stroke-width="1.5" stroke-linecap="round" stroke-linejoin="round"/>
</svg>
